<?xml version="1.0" encoding="UTF-8"?>
<svg version="1.1" xmlns="http://www.w3.org/2000/svg" width="500" height="500">
<path d="M0 0 C2.50390739 1.93975542 4.87055075 3.96099659 7.21875 6.0859375 C7.98832031 6.76269531 8.75789062 7.43945312 9.55078125 8.13671875 C22.49931817 20.20290222 30.84664515 37.94727306 31.5546875 55.6875 C31.88178786 77.24768017 27.72516273 97.19748995 12.28027344 113.13256836 C10.94122542 114.46538717 9.58058146 115.7764068 8.21875 117.0859375 C7.56261719 117.74980469 6.90648437 118.41367187 6.23046875 119.09765625 C-3.92617561 128.77582914 -16.49779704 133.49768008 -29.78125 137.0859375 C-28.523125 137.30507813 -27.265 137.52421875 -25.96875 137.75 C-4.05751646 141.73405632 15.25895729 149.272954 32.21875 164.0859375 C32.90066406 164.63636719 33.58257812 165.18679688 34.28515625 165.75390625 C40.08406684 170.53148229 44.65136085 176.1450219 49.21875 182.0859375 C50.13140625 183.25769531 50.13140625 183.25769531 51.0625 184.453125 C68.26987431 207.68308031 75.30562867 237.32613828 71.4453125 265.83618164 C68.80220212 282.75025256 62.32124035 296.78123351 54.21875 312.0859375 C-10.46125 312.0859375 -75.14125 312.0859375 -141.78125 312.0859375 C-153.96757371 288.93192244 -153.96757371 288.93192244 -156.78125 277.0859375 C-156.94206055 276.41385254 -157.10287109 275.74176758 -157.26855469 275.04931641 C-163.72126127 246.86362798 -158.90930458 216.61239081 -143.90820312 191.84423828 C-140.56851712 186.63357566 -136.73142357 181.84136315 -132.78125 177.0859375 C-131.77771484 175.85230469 -131.77771484 175.85230469 -130.75390625 174.59375 C-112.60792627 153.14512744 -85.33888397 140.52606711 -57.78125 137.0859375 C-59.46927734 136.59287109 -59.46927734 136.59287109 -61.19140625 136.08984375 C-82.24980473 129.6811673 -98.99629668 118.80522305 -110.1328125 99.3515625 C-119.51359142 80.76783933 -122.62695487 58.71908888 -116.16015625 38.59765625 C-111.24399364 26.07745743 -105.50504189 16.43628982 -95.78125 7.0859375 C-95.12511719 6.42207031 -94.46898437 5.75820312 -93.79296875 5.07421875 C-68.80830358 -18.73343864 -27.61919743 -19.00759374 0 0 Z " fill="#919191" transform="translate(293.78125,187.9140625)"/>
</svg>
